<svg width="29" height="28" viewBox="0 0 29 28" fill="none" xmlns="http://www.w3.org/2000/svg">
<path fill-rule="evenodd" clip-rule="evenodd" d="M28.4542 14.4106C28.4542 18.9287 26.3268 22.9514 23.0172 25.537L21.4856 22.5876C21.1732 24.2053 20.7881 25.7263 20.1941 27.254C19.6401 27.5077 19.067 27.7268 18.4773 27.9084C18.5114 27.848 18.5432 27.7857 18.5726 27.7217C19.7277 25.1171 20.6694 21.7987 20.6694 17.9168C20.6694 7.89904 14.3915 5.39458 14.3915 5.39458C14.3915 5.39458 8.11354 7.89904 8.11354 17.9168C8.11354 21.7987 9.06779 25.1171 10.2104 27.7217C10.2517 27.8116 10.2977 27.8981 10.3481 27.981C9.79869 27.8226 9.26305 27.6318 8.7433 27.4109C8.09039 25.8302 7.62042 24.2607 7.2974 22.5876L5.93714 25.8181C2.41532 23.2484 0.12793 19.0959 0.12793 14.4106C0.12793 6.60951 6.46899 0.285522 14.291 0.285522C22.1131 0.285522 28.4542 6.60951 28.4542 14.4106ZM14.3915 17.9168C15.7726 17.9168 16.9027 16.7898 16.9027 15.4124C16.9027 14.0349 15.7726 12.9079 14.3915 12.9079C13.0103 12.9079 11.8803 14.0349 11.8803 15.4124C11.8803 16.7898 13.0103 17.9168 14.3915 17.9168Z" fill="url(#paint0_linear_2269_13696)"/>
<defs>
<linearGradient id="paint0_linear_2269_13696" x1="93.7502" y1="34.9875" x2="-39.4195" y2="22.2995" gradientUnits="userSpaceOnUse">
<stop offset="0.0843652" stop-color="#D2992A"/>
<stop offset="0.463643" stop-color="#FFD583"/>
<stop offset="0.970334" stop-color="#D2992A"/>
</linearGradient>
</defs>
</svg>
