<svg width="542" height="180" viewBox="0 0 542 180" fill="none" xmlns="http://www.w3.org/2000/svg">
<g clip-path="url(#clip0_7_5180)">
<mask id="mask0_7_5180" style="mask-type:luminance" maskUnits="userSpaceOnUse" x="0" y="0" width="542" height="180">
<path d="M542 0H0V180H542V0Z" fill="white"/>
</mask>
<g mask="url(#mask0_7_5180)">
<path d="M104.476 75.538C104.221 75.2838 103.915 74.9788 103.61 74.7247C103.915 74.9788 104.17 75.233 104.476 75.538ZM110.541 89.6188C110.541 87.5854 110.184 85.6538 109.572 83.8238C109.419 83.2646 109.216 82.7055 108.961 82.1463C109.929 84.4338 110.49 86.9754 110.49 89.5679M108.961 96.9387C109.216 96.3796 109.369 95.8204 109.572 95.2612C110.133 93.4821 110.439 91.5504 110.49 89.5679C110.49 92.1604 109.878 94.7021 108.961 96.9387ZM41.077 97.8029C40.5674 95.4137 40.3635 92.9737 40.5674 90.5337C40.5674 90.0763 40.5674 89.6188 40.5674 89.1613C40.5674 88.7038 40.5674 88.2971 40.5674 87.8904C40.3635 85.4504 40.5674 83.0105 41.077 80.5705C45.1032 83.163 49.9957 84.6879 55.194 84.6879C60.3923 84.6879 65.2848 83.163 69.311 80.5705C69.8206 82.9088 70.0245 85.2979 69.8206 87.6871V87.7888C69.8206 88.2463 69.8206 88.7038 69.8206 89.1613C69.8206 89.5679 69.8206 89.9746 69.8206 90.3813C69.8206 90.3813 69.8206 90.4321 69.8206 90.4829C70.0245 92.9229 69.8206 95.3629 69.311 97.752C65.2848 95.1596 60.3923 93.6854 55.194 93.6854C49.9957 93.6854 45.1032 95.2104 41.077 97.8029ZM103.559 104.462C103.864 104.208 104.119 103.954 104.425 103.649C104.17 103.903 103.864 104.208 103.559 104.462Z" fill="#94D1AD"/>
<path d="M-8.88323e-05 90.0762C-8.88323e-05 83.9254 2.70099 78.4863 6.93099 74.7247C12.3841 70.048 15.7987 63.033 15.7987 55.1539C15.7987 47.2748 12.4351 40.4631 7.18581 35.7865C10.9571 38.989 15.6458 40.5648 20.3345 40.5648C20.7931 40.5648 21.2518 40.5648 21.6595 40.5648C22.2711 40.5648 22.8827 40.514 23.4942 40.514C25.3289 40.514 27.1127 40.7173 28.9473 41.0731C26.3482 45.089 24.8193 49.9689 24.8193 55.1539C24.8193 60.3389 26.3482 65.2189 28.9473 69.2347C27.1636 69.6413 25.3289 69.7938 23.5452 69.7938C23.1375 69.7938 22.7298 69.7938 22.3221 69.7938C21.6595 69.743 20.997 69.6922 20.3345 69.6922C14.7284 69.6922 9.63207 71.9797 5.96268 75.6396C1.93654 79.6555 -0.0510526 84.8404 -8.88323e-05 90.0762ZM1.78364 168.054C0.611477 165.513 -8.88323e-05 162.666 -8.88323e-05 159.667C-8.88323e-05 153.618 2.70099 148.128 6.93099 144.417C12.3841 139.74 15.8497 132.674 15.8497 124.795C15.8497 116.916 12.537 110.155 7.28773 105.479C7.38966 105.53 7.44063 105.631 7.54255 105.682C7.54255 105.682 8.00123 106.038 8.20508 106.19L8.40894 106.343C8.40894 106.343 8.81665 106.648 9.0205 106.75C9.12243 106.8 9.22436 106.902 9.27532 106.953C9.47918 107.055 9.63207 107.207 9.83592 107.309C9.93785 107.36 10.0907 107.461 10.1927 107.512C10.3965 107.614 10.5494 107.715 10.7023 107.817C10.8552 107.919 10.9571 107.969 11.11 108.02C11.2629 108.122 11.4668 108.173 11.6197 108.274C11.7725 108.325 11.9254 108.427 12.0783 108.478C12.2312 108.529 12.3841 108.63 12.537 108.681C12.6899 108.732 12.8938 108.834 13.0466 108.884C13.1995 108.935 13.3015 108.986 13.4544 109.037C13.6582 109.088 13.8621 109.189 14.0659 109.24C14.1678 109.24 14.2698 109.342 14.4227 109.342C14.6775 109.444 14.9323 109.494 15.1871 109.545H15.391C17.0218 110.003 18.7036 110.206 20.3345 110.206C20.7931 110.206 21.2009 110.206 21.6595 110.206C22.2711 110.206 22.9336 110.155 23.5452 110.155C25.3289 110.155 27.1636 110.359 28.9473 110.714C26.3482 114.73 24.8702 119.61 24.8702 124.795C24.8702 129.98 26.3992 134.86 28.9983 138.876C27.2146 139.283 25.3799 139.486 23.5452 139.486C22.9336 139.486 22.2711 139.486 21.6595 139.435C21.2009 139.435 20.7931 139.435 20.3345 139.435C15.1362 139.435 9.93785 141.418 5.96268 145.383C-0.203945 151.533 -1.57997 160.633 1.78364 168.105" fill="#94D1AD"/>
<path d="M5.91162 75.6396C9.58101 71.9797 14.6774 69.6922 20.2834 69.6922C20.9459 69.6922 21.6085 69.6922 22.271 69.7938C22.0671 69.7938 21.8633 69.7938 21.6594 69.7938C21.2008 69.7938 20.7421 69.7938 20.3344 69.7938C17.99 69.7938 15.5947 70.2005 13.3523 71.0138C13.0466 71.1155 12.7408 71.268 12.435 71.3697H12.3331C12.0273 71.5222 11.7725 71.6747 11.4667 71.8272H11.3647C11.1099 72.0305 10.8041 72.183 10.5493 72.3355H10.3964C10.1416 72.5388 9.83583 72.7422 9.58101 72.8947L9.47909 72.9963C9.22427 73.1997 8.91849 73.3522 8.66367 73.5555H8.56174C7.69535 74.2672 6.82897 74.9788 6.01355 75.7413M40.7199 91.4487C40.7199 91.0929 40.7199 90.7371 40.7199 90.3813C40.7199 90.0254 40.7199 89.6696 40.7199 89.3138C40.7199 89.3138 40.7199 88.9071 40.7199 88.7546C40.7199 89.1612 40.7199 89.6187 40.7199 90.0254C40.7199 90.4829 40.7199 90.9404 40.7199 91.3979" fill="#79C79B"/>
<path d="M28.0811 1.52499C25.5839 0.508331 22.9338 0 20.2837 0C17.6335 0 14.9834 0.508331 12.4862 1.52499C14.9325 0.559164 17.5316 0 20.2837 0C23.0357 0 25.6858 0.559164 28.0811 1.52499ZM40.5672 21.8582C40.5672 21.8582 40.5672 21.6549 40.5672 21.5532C40.8221 17.8932 40.0576 14.2333 38.3248 10.8783C39.8028 13.6741 40.6182 16.8766 40.6182 20.2316C40.6182 20.7907 40.6182 21.2991 40.5672 21.8074M0.866453 26.3824C0.305851 24.4507 6.84354e-05 22.4174 6.84354e-05 20.2824C6.84354e-05 17.5374 0.509706 14.8941 1.52898 12.5049C-0.305714 16.9274 -0.509569 21.8582 0.917417 26.3315M40.6692 158.803C40.6692 158.803 40.6692 158.498 40.6692 158.345C40.6692 158.498 40.6692 158.65 40.6692 158.803Z" fill="#94D1AD"/>
</g>
<path d="M110.54 159.768C110.54 154.533 108.553 149.348 104.578 145.383C100.602 141.418 95.4041 139.435 90.2058 139.435C89.7472 139.435 89.2885 139.435 88.8808 139.435C88.2692 139.435 87.6576 139.486 87.0461 139.486C85.2114 139.486 83.4276 139.283 81.593 138.876C84.1921 134.86 85.721 129.98 85.721 124.795C85.721 119.61 84.1921 114.73 81.593 110.714C83.3767 110.308 85.2114 110.155 86.9951 110.155C87.6067 110.155 88.2182 110.155 88.8298 110.206C89.2885 110.206 89.7472 110.206 90.2058 110.206C95.3532 110.206 100.042 108.325 103.609 105.174C98.1562 109.85 94.7416 116.865 94.7416 124.744C94.7416 132.624 98.2072 139.689 103.609 144.315C107.89 148.026 110.54 153.516 110.54 159.565V159.768ZM70.8396 166.021C70.1771 164.038 69.8203 161.903 69.8203 159.667C69.8203 159.108 69.8203 158.548 69.8713 158.04C69.8713 158.142 69.8713 158.294 69.8713 158.396C69.7184 160.988 70.0242 163.581 70.8396 166.021Z" fill="#94D1AD"/>
<path d="M90.2061 110.308C89.7474 110.308 89.2888 110.308 88.8301 110.308C89.2888 110.308 89.7474 110.308 90.1551 110.308C92.5504 110.308 94.8948 109.901 97.1372 109.088C97.443 108.935 97.7487 108.834 98.0545 108.681H98.1565C98.4622 108.529 98.7171 108.376 99.0228 108.224H99.1248C99.3796 108.02 99.6854 107.868 99.9402 107.715H100.093C100.348 107.512 100.654 107.309 100.908 107.156H101.01C101.265 106.902 101.571 106.75 101.826 106.546H101.877C102.437 106.089 102.947 105.682 103.457 105.275C99.8892 108.376 95.2006 110.308 90.0532 110.308" fill="#79C79B"/>
<path d="M69.9224 91.1946C69.9224 90.7879 69.9224 90.3813 69.9224 89.9746C69.9224 89.5171 69.9224 89.0596 69.9224 88.6021C69.9224 88.9579 69.9224 89.3137 69.9224 89.6696C69.9224 90.0254 69.9224 90.3812 69.9224 90.7371C69.9224 90.7371 69.9224 91.0421 69.9224 91.1946ZM109.674 96.0237C110.897 92.0587 110.897 87.7888 109.674 83.8746C110.235 85.7046 110.591 87.6363 110.591 89.6696V89.7712V89.8729V89.9746V90.0762V90.1779V90.2796V90.3813C110.591 92.4146 110.235 94.2954 109.674 96.1254" fill="#79C79B"/>
<path d="M107.636 30.8557C112.426 23.0274 111.407 12.7083 104.629 5.94747C100.654 1.98249 95.4552 0 90.2569 0C101.469 0 110.591 9.09912 110.591 20.2824C110.591 24.1457 109.521 27.7549 107.636 30.8557ZM103.711 74.7247C100.144 71.573 95.4552 69.6922 90.2569 69.6922C89.7982 69.6922 89.3905 69.6922 88.9319 69.6922C88.3203 69.6922 87.6578 69.743 87.0462 69.743C85.2115 69.743 83.4278 69.5397 81.644 69.133C84.2432 65.1172 85.7721 60.2372 85.7721 55.0522C85.7721 49.8673 84.2432 44.9873 81.644 40.9715C83.4278 40.5648 85.2625 40.3615 87.0462 40.3615C87.6578 40.3615 88.3203 40.3615 88.9319 40.4123C89.3905 40.4123 89.7982 40.4123 90.2569 40.4123C95.0475 40.4123 99.8381 38.7348 103.711 35.3798C98.2582 40.0565 94.7927 47.1223 94.7927 55.0014C94.7927 62.8805 98.2582 69.9464 103.711 74.5722" fill="#94D1AD"/>
<path d="M103.609 74.7755C103.609 74.7755 103.201 74.4705 103.049 74.318C103.049 74.318 102.59 73.9622 102.386 73.8097L102.182 73.6572C102.182 73.6572 101.775 73.403 101.571 73.2505C101.469 73.1997 101.367 73.1488 101.316 73.0472C101.112 72.9455 100.959 72.793 100.755 72.6913C100.653 72.6405 100.551 72.5388 100.398 72.488C100.195 72.3863 100.042 72.2847 99.8379 72.183C99.685 72.1322 99.5831 72.0305 99.4302 71.9797C99.2773 71.878 99.0734 71.8272 98.9205 71.7255C98.7676 71.6747 98.6148 71.573 98.4619 71.5222C98.309 71.4713 98.1561 71.3697 98.0032 71.3188C97.8503 71.268 97.6464 71.1663 97.4936 71.1155C97.3407 71.0647 97.2387 71.0138 97.0858 70.963C96.882 70.8613 96.6781 70.8105 96.4743 70.7597C96.3724 70.7597 96.2704 70.7088 96.1685 70.658C95.9137 70.5563 95.6589 70.5055 95.404 70.4547H95.2002C93.5693 69.9972 91.8875 69.7938 90.2567 69.7938C89.849 69.7938 89.3903 69.7938 88.9316 69.7938C89.3903 69.7938 89.798 69.7938 90.2567 69.7938C95.404 69.7938 100.093 71.7255 103.711 74.8263L103.609 74.7755Z" fill="#79C79B"/>
<path d="M61.6154 124.846L55.2449 118.492L62.2779 111.477C65.9473 107.817 68.3426 103.293 69.3619 98.6162C71.4514 99.9379 73.2861 101.565 74.866 103.395C75.3246 103.903 75.7833 104.36 76.242 104.818C76.3949 104.97 76.5478 105.123 76.7516 105.275C78.5863 106.851 80.2172 108.732 81.5422 110.816C76.9555 111.833 72.5216 114.12 68.9032 117.628L61.6154 124.897V124.846ZM40.5673 158.345C40.2106 152.804 37.6114 147.873 33.6872 144.417C31.8525 142.841 30.2217 140.96 28.8966 138.927C33.5853 137.91 38.0701 135.521 41.7905 131.861L48.8235 124.846L55.1939 131.2L48.1609 138.215C42.5549 143.807 40.0067 151.228 40.5673 158.345ZM20.2837 180C15.0854 180 9.88712 178.018 5.91194 174.053C4.12821 172.273 2.75219 170.24 1.73291 168.054C4.94363 175.069 12.0276 180 20.2837 180C31.4958 180 40.6183 170.901 40.6183 159.718C40.6183 159.463 40.6183 159.158 40.6183 158.853C40.8731 164.343 38.8855 169.884 34.7065 174.053C30.7313 178.018 25.533 180 20.3347 180" fill="#96C1BB"/>
<path d="M74.9167 103.344C73.3368 101.514 71.4511 99.887 69.4126 98.5654C69.9222 96.1762 70.1261 93.6854 69.9222 91.2962C69.9222 91.2962 69.9222 91.2454 69.9222 91.1946C70.1771 95.8204 72.0627 100.04 74.9167 103.344ZM76.8023 105.225C76.8023 105.225 76.4966 104.92 76.2927 104.767C76.4456 104.92 76.5985 105.072 76.8023 105.225Z" fill="#62B19A"/>
<path d="M104.476 104.462C106.412 102.581 107.941 100.294 109.011 97.752C107.992 100.141 106.565 102.378 104.578 104.36L104.476 104.462Z" fill="#96C1BB"/>
<path d="M103.559 105.275C106.362 102.835 108.451 99.6837 109.572 96.0746C109.368 96.6337 109.216 97.1929 108.961 97.752C107.891 100.294 106.362 102.581 104.425 104.462C104.17 104.716 103.864 105.021 103.559 105.275Z" fill="#62B19A"/>
<path d="M48.8741 55.1539L41.8411 48.1389C38.1717 44.479 33.6359 42.0898 28.9473 41.0731C30.2723 38.989 31.9032 37.159 33.7379 35.5323C37.6111 32.1265 40.1593 27.2974 40.567 21.8582C40.1083 28.924 42.6565 36.244 48.2116 41.734L55.2446 48.7489L48.8741 55.1031V55.1539ZM69.4125 81.3838C68.3932 76.8088 66.0999 72.3863 62.5324 68.7772L55.2446 61.508L61.6151 55.1539L68.6481 62.1689C72.3175 65.8289 76.8532 68.218 81.5419 69.2347C80.2168 71.3188 78.586 73.1488 76.7513 74.7246C76.2417 75.1821 75.783 75.6396 75.3243 76.0971C75.1714 76.2496 75.0185 76.4021 74.8657 76.5546C73.2858 78.3846 71.4001 80.0113 69.3106 81.333" fill="#96C1BB"/>
<path d="M69.9222 88.4496C70.0751 86.1113 69.9222 83.7221 69.4126 81.333C71.5021 80.0113 73.3368 78.3846 74.9677 76.5546C72.1137 79.7571 70.279 83.9254 69.9732 88.4496" fill="#62B19A"/>
<path d="M109.012 82.1971C107.941 79.7063 106.413 77.4188 104.527 75.538C104.527 75.538 104.578 75.5888 104.629 75.6396C106.565 77.5713 108.043 79.808 109.063 82.1971" fill="#96C1BB"/>
<path d="M109.623 83.8746C108.502 80.3163 106.412 77.1646 103.66 74.7755C103.966 75.0297 104.221 75.2838 104.527 75.5888C106.463 77.4696 107.992 79.7571 109.011 82.248C109.215 82.8071 109.419 83.3663 109.623 83.9254" fill="#62B19A"/>
<mask id="mask1_7_5180" style="mask-type:luminance" maskUnits="userSpaceOnUse" x="0" y="0" width="542" height="180">
<path d="M542 0H0V180H542V0Z" fill="white"/>
</mask>
<g mask="url(#mask1_7_5180)">
<path d="M38.3758 10.9291C36.1843 6.70997 32.5659 3.35499 28.132 1.52499C30.5273 2.54166 32.7697 3.96498 34.7064 5.94747C36.2353 7.47247 37.4584 9.14996 38.3758 10.9291ZM1.47796 12.5049C2.49723 10.1158 3.92422 7.87913 5.91181 5.94747C7.84843 4.01582 10.0908 2.54166 12.4861 1.52499C7.54265 3.60915 3.56747 7.57413 1.47796 12.5049ZM7.13494 35.7865C6.72723 35.4307 6.26856 35.024 5.86085 34.6173C3.46555 32.2282 1.78374 29.3815 0.81543 26.3315C1.93663 29.9407 4.07711 33.0923 6.82916 35.5323C6.82916 35.5323 6.98205 35.6848 7.08398 35.7865" fill="#96C1BB"/>
<path d="M28.9475 41.0731C27.1638 40.6665 25.3291 40.4631 23.4944 40.4631C22.8828 40.4631 22.2713 40.4631 21.6597 40.514C21.201 40.514 20.7424 40.514 20.3347 40.514C15.646 40.514 10.9573 38.9382 7.18599 35.7357C7.08406 35.634 7.0331 35.5832 6.93117 35.5323C4.17912 33.0923 2.03865 29.9407 0.917442 26.3315C-0.509544 21.8074 -0.305689 16.8766 1.52901 12.5049C3.56756 7.57413 7.54274 3.60915 12.4862 1.52499C14.9835 0.508331 17.6336 0 20.2837 0C22.9338 0 25.5839 0.508331 28.0811 1.52499C32.515 3.35498 36.1334 6.70997 38.3249 10.9291C40.0576 14.2333 40.8221 17.9441 40.5673 21.6041C40.5673 21.6041 40.5673 21.8074 40.5673 21.9091C40.1596 27.3482 37.5604 32.1773 33.6872 35.5323C31.8525 37.1082 30.2216 38.989 28.8966 41.0731M20.2837 180C12.0276 180 4.94358 175.12 1.73286 168.054C-1.63075 160.582 -0.254726 151.483 5.91189 145.332C9.88707 141.367 15.0854 139.384 20.2837 139.384C20.7424 139.384 21.1501 139.384 21.6087 139.384C22.2203 139.384 22.8828 139.435 23.4944 139.435C25.3291 139.435 27.1128 139.232 28.9475 138.876C30.2726 140.909 31.9034 142.79 33.7381 144.366C37.6623 147.823 40.2615 152.753 40.6182 158.294C40.6182 158.447 40.6182 158.599 40.6182 158.752C40.6182 159.057 40.6182 159.311 40.6182 159.616C40.6182 170.799 31.4957 179.898 20.2837 179.898" fill="#62B19A"/>
</g>
<path d="M76.8027 74.7247C78.6373 73.1488 80.2682 71.268 81.5933 69.2347C83.377 69.6413 85.2117 69.7938 86.9954 69.7938C87.607 69.7938 88.2695 69.7938 88.8811 69.743C84.2434 70.048 80.0643 71.878 76.8027 74.7247ZM74.917 76.6055C74.917 76.6055 75.2228 76.3005 75.3757 76.148C75.2228 76.3005 75.0699 76.453 74.917 76.6055ZM76.293 104.818C75.7834 104.36 75.3247 103.903 74.917 103.395C75.3757 103.903 75.8343 104.36 76.293 104.818ZM81.5933 110.765C80.2682 108.681 78.6373 106.851 76.8027 105.225C80.0643 108.071 84.2434 109.901 88.8811 110.206C88.2695 110.206 87.6579 110.155 87.0464 110.155C85.2117 110.155 83.4279 110.359 81.6442 110.714" fill="#62B19A"/>
<mask id="mask2_7_5180" style="mask-type:luminance" maskUnits="userSpaceOnUse" x="0" y="0" width="542" height="180">
<path d="M542 0H0V180H542V0Z" fill="white"/>
</mask>
<g mask="url(#mask2_7_5180)">
<path d="M90.206 110.308C89.7473 110.308 89.2886 110.308 88.8809 110.308C84.2432 110.003 80.0642 108.173 76.8025 105.326C76.6496 105.174 76.4967 105.021 76.2928 104.869C75.7832 104.411 75.3245 103.954 74.9168 103.445C72.0119 100.141 70.1772 95.9221 69.9224 91.2962C69.9224 91.1437 69.9224 91.0421 69.9224 90.8896C69.9224 90.4829 69.9224 90.1779 69.9224 89.8221C69.9224 89.4663 69.9224 89.1104 69.9224 88.7546V88.6529C70.2791 84.1288 72.1138 79.9605 74.9168 76.758C75.0697 76.6055 75.2226 76.453 75.3755 76.3005C75.8342 75.7921 76.2928 75.3855 76.8025 74.928C80.0642 72.0813 84.2942 70.2513 88.8809 69.9463C89.3396 69.9463 89.7473 69.9463 90.206 69.9463C91.8878 69.9463 93.5186 70.1497 95.1494 70.5563H95.3533C95.6081 70.658 95.8629 70.7597 96.1178 70.8105C96.2197 70.8105 96.3216 70.8613 96.4235 70.9122C96.6274 70.963 96.8313 71.0647 97.0351 71.1155C97.188 71.1155 97.2899 71.2172 97.4428 71.268C97.6467 71.3188 97.7996 71.4205 97.9524 71.4713C98.1053 71.5222 98.2582 71.6238 98.4111 71.6747C98.564 71.7255 98.7169 71.8272 98.8698 71.878C99.0227 71.9797 99.2265 72.0305 99.3794 72.1322C99.5323 72.183 99.6343 72.2847 99.7871 72.3355C99.991 72.4372 100.144 72.5388 100.297 72.6405C100.399 72.6913 100.552 72.793 100.654 72.8438C100.857 72.9455 101.01 73.0472 101.214 73.1997C101.316 73.2505 101.418 73.3013 101.469 73.403C101.673 73.5555 101.877 73.6572 102.081 73.8097L102.284 73.9622C102.284 73.9622 102.743 74.318 102.947 74.4705C102.947 74.4705 103.355 74.8263 103.508 74.9788C106.26 77.368 108.349 80.5196 109.47 84.0779C110.744 88.0429 110.744 92.3129 109.47 96.2779C108.349 99.887 106.209 103.039 103.457 105.479C102.947 105.936 102.437 106.343 101.877 106.699H101.826C101.571 106.953 101.265 107.105 101.01 107.309L100.908 107.41C100.654 107.563 100.399 107.715 100.093 107.868H99.94C99.6852 108.071 99.3794 108.224 99.1246 108.376H98.9717C98.7169 108.579 98.4111 108.732 98.1053 108.834H98.0034C97.6976 108.986 97.3918 109.139 97.0861 109.24C94.8437 110.054 92.4484 110.511 90.104 110.511" fill="#51AC92"/>
<path d="M89.3395 0C89.3395 0 89.7982 0 90.053 0C89.7982 0 89.5944 0 89.3395 0ZM103.66 35.5323C105.189 34.2107 106.514 32.6348 107.585 30.8557C106.769 32.1773 105.75 33.4482 104.578 34.6173C104.272 34.9223 103.966 35.2273 103.609 35.4815M61.6152 55.1031L55.2448 48.7489L62.2778 41.734C67.8328 36.1932 70.432 28.7715 69.8714 21.6041C69.5146 15.9616 71.4512 10.2175 75.7832 5.89664C78.3823 3.30415 81.4911 1.57583 84.7528 0.66083C76.1399 2.99915 69.8204 10.8783 69.8204 20.2316C69.8204 26.3315 72.5215 31.7707 76.7515 35.4815C78.5862 37.0573 80.217 38.9382 81.5421 40.9715C76.8534 41.9881 72.3176 44.3773 68.6482 48.0373L61.6152 55.0522M41.1278 81.2821C39.0383 79.9605 37.2036 78.3338 35.5727 76.5038C34.9102 75.7921 34.2477 75.0805 33.4832 74.4705C31.7504 72.9455 30.1706 71.1663 28.8965 69.1838C33.4832 68.1672 37.9171 65.8797 41.5355 62.3722L48.8233 55.1031L55.1938 61.4572L48.1608 68.4722C44.4914 72.1322 42.0961 76.6563 41.0768 81.333M7.13493 105.479C6.67626 105.123 6.26855 104.716 5.86084 104.31C1.93662 100.395 0 95.2612 0 90.0762C0 96.1254 2.70108 101.565 6.93108 105.225C6.93108 105.225 7.13493 105.428 7.23686 105.53M48.9252 124.846L41.8922 117.831C38.2229 114.171 33.6871 111.782 28.9984 110.765C30.2725 108.783 31.8014 107.004 33.5342 105.479C34.2986 104.818 35.0121 104.106 35.6747 103.344C37.2545 101.514 39.0892 99.887 41.1787 98.5654C42.198 103.14 44.4914 107.563 48.0589 111.172L55.3467 118.441L48.9762 124.795M70.0243 157.989C70.432 150.974 67.8838 143.654 62.3797 138.164L55.3467 131.149L61.7172 124.795L68.7502 131.81C72.4196 135.47 76.9553 137.859 81.644 138.876C80.3189 140.96 78.6881 142.79 76.8534 144.366C72.9802 147.772 70.432 152.55 70.0243 157.989ZM90.3078 179.949C85.1095 179.949 79.9112 177.967 75.9361 174.002C73.5917 171.663 71.9609 168.918 70.9926 165.97C73.6427 174.053 81.2873 179.949 90.3078 179.949C101.52 179.949 110.591 170.901 110.642 159.718C110.642 164.903 108.655 170.037 104.68 174.002C100.704 177.967 95.5061 179.949 90.3078 179.949Z" fill="#ADD79B"/>
<path d="M40.6183 88.7038C40.2616 83.163 37.6624 78.2321 33.7382 74.7755C33.7382 74.7755 33.5853 74.623 33.4834 74.5722C34.2479 75.1822 34.9104 75.8938 35.5729 76.6055C37.1528 78.4355 39.0384 80.0621 41.128 81.3838C40.6183 83.8238 40.4145 86.2638 40.6183 88.7038ZM33.4834 105.479C33.4834 105.479 33.6363 105.326 33.7382 105.275C37.6624 101.819 40.2616 96.8879 40.6183 91.3471C40.4145 93.7362 40.6183 96.2271 41.128 98.6162C39.0894 99.9379 37.2038 101.565 35.6239 103.395C34.9613 104.157 34.2479 104.869 33.4834 105.53" fill="#79C47A"/>
<path d="M33.4832 74.5722C30.4254 71.9288 26.5521 70.2513 22.2712 69.8447C22.6789 69.8447 23.0866 69.8447 23.4943 69.8447C25.329 69.8447 27.1127 69.6413 28.8965 69.2347C30.1706 71.2172 31.6995 72.9963 33.4832 74.5213M28.8965 110.765C27.1127 110.359 25.278 110.206 23.4943 110.206C22.8827 110.206 22.2202 110.206 21.6086 110.257C21.15 110.257 20.7423 110.257 20.2836 110.257C18.6018 110.257 16.9709 110.054 15.3401 109.647H15.1362C14.8814 109.545 14.6266 109.444 14.3718 109.393C14.2699 109.393 14.1679 109.342 14.066 109.291C13.8622 109.24 13.6583 109.139 13.4544 109.088C13.3016 109.088 13.1996 108.986 13.0467 108.935C12.8429 108.885 12.69 108.783 12.5371 108.732C12.3842 108.681 12.2313 108.63 12.0784 108.529C11.9255 108.478 11.7726 108.376 11.6197 108.325C11.4669 108.224 11.263 108.173 11.1101 108.071C10.9572 108.02 10.8553 107.919 10.7024 107.868C10.4985 107.766 10.3457 107.665 10.1418 107.563C10.0399 107.512 9.93794 107.41 9.78505 107.36C9.58119 107.258 9.4283 107.156 9.22445 107.004C9.12252 106.953 9.02059 106.902 8.96963 106.8C8.76577 106.648 8.56192 106.546 8.35806 106.394L8.15421 106.241C8.15421 106.241 7.69553 105.885 7.49168 105.733C7.49168 105.733 7.33879 105.58 7.23686 105.53C7.13493 105.428 7.033 105.326 6.93108 105.275C2.65012 101.514 0 96.1254 0 90.0762C0 84.8404 1.98759 79.6555 5.96276 75.6905C2.24241 79.3505 0 84.3829 0 89.9746C0 101.158 9.12252 110.257 20.3346 110.257C25.329 110.257 29.9158 108.427 33.4832 105.428C31.7504 106.953 30.2215 108.732 28.9474 110.714" fill="#79C47A"/>
<path d="M20.3346 110.308C9.07156 110.308 0 101.209 0 90.0254C0 84.4338 2.29337 79.3505 5.96276 75.6905C6.77818 74.8772 7.59361 74.1655 8.51095 73.5555H8.56192C8.81674 73.3013 9.12252 73.1488 9.37734 72.9455H9.47927C9.73409 72.6913 9.9889 72.5388 10.2947 72.3863H10.4476C10.7024 72.183 11.0082 72.0305 11.263 71.878H11.4159C11.7217 71.6747 11.9765 71.5222 12.2823 71.4205H12.3842C12.69 71.268 12.9958 71.1155 13.3016 71.0138C15.544 70.2005 17.9393 69.743 20.2836 69.743C20.7423 69.743 21.2009 69.743 21.6086 69.743C21.6086 69.743 22.0164 69.743 22.2202 69.743C26.5012 70.1497 30.3744 71.878 33.4323 74.4705C33.5342 74.5213 33.5851 74.623 33.6871 74.6738C37.6113 78.1305 40.2104 83.0613 40.5672 88.6529C40.5672 88.8054 40.5672 89.0088 40.5672 89.1613C40.5672 89.5679 40.5672 89.8729 40.5672 90.2288C40.5672 90.5846 40.5672 90.9404 40.5672 91.2962C40.2104 96.837 37.6113 101.768 33.6871 105.225C33.6871 105.225 33.5342 105.377 33.4323 105.428C29.8648 108.427 25.278 110.206 20.2836 110.206" fill="#6BC070"/>
</g>
<path d="M81.5933 41.0731C80.2682 38.989 78.6374 37.159 76.8027 35.5832C72.5727 31.8723 69.8716 26.3824 69.8716 20.3332C69.8716 10.9799 76.1911 3.10081 84.804 0.76249C86.2819 0.355826 87.8108 0.10166 89.3398 0.050827C89.3398 0.050827 89.7984 0.050827 90.0532 0.050827H90.2061C95.4044 0.050827 100.603 2.03332 104.578 5.9983C111.356 12.7591 112.324 23.0782 107.585 30.9065C106.515 32.6348 105.189 34.2107 103.661 35.5832C99.8383 38.9381 95.0477 40.6156 90.2061 40.6156C89.7475 40.6156 89.3398 40.6156 88.8811 40.6156C88.2695 40.6156 87.607 40.5648 86.9954 40.5648C85.1607 40.5648 83.377 40.7681 81.5933 41.124M90.2061 180.051C81.1855 180.051 73.541 174.205 70.8909 166.072C70.0754 163.581 69.7697 161.039 69.9225 158.447C69.9225 158.447 69.9225 158.193 69.9225 158.091C70.3303 152.703 72.9294 147.873 76.7517 144.468C78.5864 142.892 80.2172 141.011 81.5423 138.978C83.326 139.384 85.1607 139.588 86.9954 139.588C87.607 139.588 88.2185 139.588 88.8301 139.537C89.2888 139.537 89.7475 139.537 90.1552 139.537C95.3535 139.537 100.552 141.519 104.527 145.484C108.502 149.449 110.49 154.685 110.49 159.87C110.49 171.053 101.367 180.102 90.1552 180.102" fill="#79C47A"/>
<path d="M55.245 61.508L48.8745 55.1539L55.245 48.7998L61.6155 55.1539L55.245 61.508ZM55.245 131.2L48.8745 124.846L55.245 118.492L61.6155 124.846L55.245 131.2Z" fill="#7BBB82"/>
<path d="M195.395 94.4479H166.651V116.662C166.651 118.899 164.919 120.678 162.574 120.678C160.23 120.678 158.599 118.848 158.599 116.662V64.6089C158.599 62.3722 160.332 60.5422 162.574 60.5422C164.817 60.5422 166.651 62.3722 166.651 64.6089V87.1279H195.395V64.6089C195.395 62.3722 197.128 60.5422 199.37 60.5422C201.613 60.5422 203.447 62.3722 203.447 64.6089V116.662C203.447 118.899 201.714 120.678 199.37 120.678C197.026 120.678 195.395 118.848 195.395 116.662V94.4479Z" fill="#14978A"/>
<path d="M254.156 60.2881C271.127 60.2881 284.327 73.8605 284.327 90.7371C284.327 107.614 271.127 121.084 254.156 121.084C237.185 121.084 224.139 107.512 224.139 90.7371C224.139 73.9622 237.236 60.2881 254.156 60.2881ZM254.156 113.358C266.642 113.358 276.224 103.293 276.224 90.7371C276.224 78.1813 266.642 68.0147 254.156 68.0147C241.67 68.0147 232.14 78.1813 232.14 90.7371C232.14 103.293 241.721 113.358 254.156 113.358Z" fill="#14978A"/>
<path d="M308.994 120.22C306.853 120.22 304.917 118.339 304.917 116.103V64.558C304.917 62.3214 306.649 60.5422 308.892 60.5422C311.134 60.5422 312.969 62.3722 312.969 64.558V112.748H333.813C335.902 112.748 337.584 114.374 337.584 116.459C337.584 118.543 335.852 120.22 333.813 120.22H308.994Z" fill="#14978A"/>
<path d="M363.525 116.611C363.525 118.848 361.792 120.678 359.448 120.678C357.103 120.678 355.473 118.848 355.473 116.611V64.558C355.473 62.3214 357.205 60.5422 359.448 60.5422C361.69 60.5422 363.525 62.3722 363.525 64.558V116.611Z" fill="#14978A"/>
<path d="M404.908 113.612C412.756 113.612 416.884 108.884 416.884 104.055C416.986 98.2095 411.89 95.6171 406.793 94.3462L399.098 92.4654C386.51 89.3646 384.624 82.0446 384.624 76.9613C384.624 66.998 393.747 60.2881 403.837 60.2881C413.317 60.2881 420.146 65.2189 422.286 72.8438C422.439 73.4538 422.541 74.1147 422.541 74.8263C422.541 76.7071 421.573 78.4355 418.566 78.4355C417.088 78.4355 415.457 77.8255 414.846 75.6905C413.368 70.2005 409.138 67.9639 403.735 67.9639C397.977 67.9639 392.625 71.4713 392.625 76.9105C392.625 79.503 393.594 83.3663 401.085 85.1454L408.832 87.0263C419.025 89.5171 424.885 95.2104 424.885 103.293C424.885 112.849 417.649 121.084 404.908 121.084C394.46 121.084 387.478 115.493 385.083 107.919C384.93 107.309 384.828 106.699 384.828 106.19C384.828 103.801 386.714 102.48 388.803 102.48C390.536 102.48 391.912 103.7 392.421 105.326C393.645 109.698 398.435 113.561 404.908 113.561" fill="#14978A"/>
<mask id="mask3_7_5180" style="mask-type:luminance" maskUnits="userSpaceOnUse" x="0" y="0" width="542" height="180">
<path d="M542 0H0V180H542V0Z" fill="white"/>
</mask>
<g mask="url(#mask3_7_5180)">
<path d="M442.57 68.4722C440.48 68.4722 438.748 66.8455 438.748 64.7105C438.748 62.5755 440.48 60.9997 442.57 60.9997H480.334C482.424 60.9997 484.105 62.6264 484.105 64.7105C484.105 66.7947 482.373 68.4722 480.334 68.4722H465.504V116.662C465.504 118.899 463.771 120.729 461.477 120.729C459.184 120.729 457.502 118.899 457.502 116.662V68.4722H442.57Z" fill="#14978A"/>
<path d="M541.694 115.188C542.561 117.323 541.593 119.559 539.452 120.424C537.312 121.186 535.069 120.169 534.254 118.085L529.31 105.174H504.134L499.14 118.085C498.375 120.169 496.133 121.186 493.941 120.424C491.801 119.559 490.833 117.323 491.699 115.188L511.014 64.4564C512.034 62.0672 513.664 60.593 516.518 60.593H516.926C519.627 60.593 521.309 62.0672 522.277 64.4564L541.593 115.188H541.694ZM526.609 98.0062L516.773 70.2005L506.937 98.0062H526.609Z" fill="#14978A"/>
</g>
</g>
<defs>
<clipPath id="clip0_7_5180">
<rect width="542" height="180" fill="white"/>
</clipPath>
</defs>
</svg>
