<svg width="250" height="120" viewBox="0 0 250 120" fill="none" xmlns="http://www.w3.org/2000/svg">
<g clip-path="url(#clip0_15_37)">
<path d="M67.9336 22.9498C68.6612 23.6775 69.0978 24.6876 69.0978 25.9973V65.1344C69.0978 66.4355 68.8067 67.3087 68.0791 68.0363C67.3515 68.7639 66.4869 69.055 65.3228 69.055C64.1586 69.055 63.294 68.7639 62.5664 68.0363C61.8388 67.3087 61.5477 66.2986 61.5477 65.1344V37.8874L50.2312 59.1936C49.6491 60.2123 49.067 60.9314 48.4934 61.3679C47.8686 61.8387 47.0981 62.0955 46.3192 62.0955C45.5402 62.0955 44.7698 61.8387 44.1449 61.3679C43.5628 60.9314 42.9807 60.2123 42.4072 59.1936L31.0906 38.1784V65.1344C31.0906 66.29 30.7996 67.3087 30.0719 68.0363C29.721 68.413 29.293 68.704 28.8136 68.9094C28.3428 69.1063 27.8292 69.209 27.3156 69.2005C26.1514 69.2005 25.2868 68.9094 24.5592 68.1818C23.8316 67.4542 23.5405 66.4441 23.5405 65.2799V26.1428C23.5405 24.8416 23.9771 23.823 24.7047 23.0954C25.0899 22.7187 25.5436 22.4277 26.0401 22.2222C26.5366 22.0253 27.0673 21.9226 27.6066 21.9312C29.3443 21.9312 30.654 22.9498 31.6727 24.8331L46.3277 52.8077L60.9827 24.542C62.0014 22.6588 63.3026 21.6401 64.9033 21.6401C66.213 21.7857 67.0776 22.0767 67.9507 22.9413L67.9336 22.9498Z" fill="white"/>
<path d="M102.465 38.8975C104.64 41.0717 105.804 44.5472 105.804 49.0413V65.1344C105.804 66.29 105.513 67.3087 104.785 67.8908C104.058 68.6184 103.048 68.9094 101.883 68.9094C100.719 68.9094 99.8546 68.6184 99.127 67.8908C98.7503 67.5398 98.4593 67.1118 98.2538 66.6324C98.0569 66.1616 97.9542 65.648 97.9628 65.1344V63.6877C97.2608 65.3741 96.0453 66.7951 94.4788 67.7453C92.8866 68.7639 90.9948 69.1919 88.8205 69.1919C86.7661 69.209 84.7287 68.7639 82.8712 67.8908C81.1335 67.0176 79.6782 65.862 78.6596 64.2698C77.6324 62.7204 77.0759 60.9057 77.0674 59.0481C77.0674 56.7283 77.6495 54.8451 78.9506 53.3984C80.1148 52.0972 82.1436 51.0786 84.8999 50.351C87.6563 49.7689 91.4314 49.4778 96.2165 49.4778H97.8087V48.1767C97.8087 46.0024 97.3721 44.4102 96.3535 43.3915C95.4803 42.3729 93.8881 41.9449 91.8594 41.9449C90.5325 41.9278 89.2057 42.1161 87.9388 42.527C86.6291 42.9635 85.0369 43.4001 83.2992 44.1192C82.135 44.7013 81.2704 44.9923 80.8339 44.9923C80.4743 45.0009 80.1148 44.9324 79.7895 44.7783C79.4642 44.6242 79.1732 44.4016 78.9506 44.1192C78.3685 43.5371 78.223 42.818 78.223 41.7994C78.223 41.0717 78.3685 40.3527 78.8051 39.9161C79.2417 39.334 79.8238 38.8975 80.6883 38.3239C82.2805 37.4508 84.0268 36.8773 86.2011 36.2952C88.2983 35.8415 90.4384 35.5932 92.587 35.5675C96.9441 35.5675 100.274 36.7232 102.457 38.8975H102.465ZM95.7885 61.0769C97.2437 59.6302 97.8173 57.747 97.8173 55.2816V53.835H96.6531C93.7512 53.835 91.4314 53.9805 89.6851 54.2715C88.0929 54.5626 86.9287 54.9991 86.2011 55.7182C85.4735 56.4458 85.1824 57.3104 85.1824 58.4746C85.1824 59.9212 85.619 61.0854 86.6377 61.95C87.6392 62.8232 88.9318 63.2854 90.2672 63.2512C92.587 63.3967 94.3333 62.5235 95.7799 61.0769H95.7885Z" fill="white"/>
<path d="M144.402 65.1344C144.402 66.1531 143.965 67.0176 143.238 67.8908C142.904 68.2503 142.501 68.5414 142.048 68.7382C141.603 68.9351 141.115 69.0464 140.618 69.0464C139.599 69.0464 138.735 68.6098 137.862 67.8908L122.334 53.835V65.143C122.334 66.4441 121.897 67.4628 121.169 68.0449C120.442 68.7725 119.432 69.0635 118.122 69.0635C116.812 69.0635 115.948 68.7725 115.22 68.0449C114.492 67.3172 114.056 66.4527 114.056 65.143V25.7062C114.056 24.4051 114.492 23.3864 115.22 22.8043C115.948 22.0767 116.966 21.7857 118.122 21.7857C119.278 21.7857 120.296 22.0767 121.169 22.8043C121.897 23.5319 122.334 24.3965 122.334 25.7062V50.6335L136.552 37.0057C137.288 36.278 138.273 35.8586 139.308 35.85C139.796 35.85 140.284 35.9613 140.729 36.1582C141.175 36.3551 141.585 36.6461 141.919 37.0057C142.279 37.3395 142.57 37.7418 142.767 38.1955C142.964 38.6406 143.075 39.1286 143.075 39.6165C143.075 40.6352 142.638 41.4998 141.774 42.3729L131.322 52.0801L142.784 62.3695C143.948 63.2426 144.376 64.1072 144.376 65.1258L144.402 65.1344Z" fill="white"/>
<path d="M173.72 38.8975C175.895 41.0717 177.059 44.5472 177.059 49.0413V65.1344C177.059 66.29 176.768 67.3087 176.04 67.8908C175.312 68.6184 174.302 68.9094 173.138 68.9094C171.974 68.9094 171.109 68.6184 170.382 67.8908C170.005 67.5398 169.714 67.1118 169.509 66.6324C169.312 66.1616 169.209 65.648 169.218 65.1344V63.6877C168.516 65.3741 167.292 66.7951 165.734 67.7453C164.141 68.7639 162.25 69.1919 160.075 69.1919C158.021 69.209 155.984 68.7639 154.126 67.8908C152.388 67.0176 150.933 65.862 149.914 64.2698C148.896 62.6776 148.322 61.0769 148.322 59.1936C148.322 56.8738 148.904 54.9906 150.206 53.5439C151.37 52.2428 153.398 51.2241 156.155 50.4965C158.911 49.9144 162.686 49.6234 167.471 49.6234H169.064V48.1767C169.064 46.0024 168.627 44.4102 167.617 43.3915C166.744 42.3729 165.152 41.9449 163.114 41.9449C161.787 41.9278 160.461 42.1161 159.194 42.527C157.884 42.9635 156.292 43.4001 154.554 44.1192C153.39 44.7013 152.525 44.9923 152.089 44.9923C151.729 45.0009 151.37 44.9324 151.044 44.7783C150.719 44.6242 150.428 44.4016 150.206 44.1192C149.623 43.5371 149.478 42.818 149.478 41.7994C149.478 41.0717 149.623 40.3527 150.06 39.9161C150.497 39.334 151.079 38.8975 151.943 38.3239C153.535 37.4508 155.282 36.8773 157.456 36.2952C159.553 35.8415 161.693 35.5932 163.842 35.5675C168.199 35.5675 171.529 36.7232 173.712 38.8975H173.72ZM167.043 61.0769C168.499 59.6302 169.072 57.747 169.072 55.2816V53.835H167.908C165.006 53.835 162.686 53.9805 160.94 54.2715C159.348 54.5626 158.184 54.9991 157.456 55.7182C156.728 56.4458 156.437 57.3104 156.437 58.4746C156.437 59.9212 156.874 61.0854 157.893 61.95C158.894 62.8232 160.187 63.2854 161.522 63.2512C163.842 63.3967 165.588 62.5235 167.035 61.0769H167.043Z" fill="white"/>
<path d="M187.357 47.5946V65.1344C187.357 66.4355 187.793 67.4542 188.521 68.0363C189.248 68.7639 190.259 69.055 191.423 69.055C192.587 69.055 193.597 68.7639 194.47 68.0363C195.198 67.3087 195.634 66.4441 195.634 65.1344V49.6234C192.441 49.3323 189.685 48.4677 187.365 47.5946H187.357Z" fill="white"/>
<path d="M208.543 48.3136V65.1258C208.543 66.427 208.98 67.4457 209.707 68.0277C210.435 68.7554 211.445 69.0464 212.609 69.0464C213.773 69.0464 214.784 68.7554 215.657 68.0277C216.384 67.3001 216.821 66.4356 216.821 65.1258V43.383C214.458 45.6172 211.633 47.295 208.552 48.3136H208.543Z" fill="white"/>
<path d="M212.421 23.4121C214.843 23.4121 216.812 21.4518 216.812 19.0293C216.812 16.6067 214.843 14.6465 212.421 14.6465C209.998 14.6465 208.03 16.6067 208.03 19.0293C208.03 21.4518 209.998 23.4121 212.421 23.4121Z" fill="white"/>
<path d="M222.83 23.823C222.248 23.3864 221.383 23.3864 220.801 23.5319C220.433 23.609 220.091 23.7631 219.783 23.9942C219.483 24.2167 219.235 24.5078 219.055 24.8416C214.989 31.6555 209.913 36.0041 203.818 37.5963H203.672C193.511 40.0616 183.796 33.9754 183.796 33.9754C183.496 33.7699 183.153 33.6329 182.794 33.5645C182.434 33.496 182.066 33.5045 181.715 33.5901C181.364 33.6757 181.031 33.8213 180.74 34.0438C180.448 34.2578 180.2 34.5318 180.02 34.8485C179.806 35.1395 179.661 35.4648 179.584 35.8158C179.507 36.1668 179.507 36.5263 179.584 36.8773C179.738 37.5792 180.157 38.2041 180.748 38.615C181.185 38.906 192.356 46.011 204.836 42.9635L205.273 42.818C212.678 40.9348 218.909 35.7131 223.703 27.598C224.14 27.0159 224.14 26.1514 223.994 25.5693C223.84 24.8673 223.421 24.2424 222.83 23.8315V23.823Z" fill="white"/>
<path d="M190.327 29.3272C192.895 29.3272 194.967 27.2471 194.967 24.6876C194.967 22.1281 192.887 20.0479 190.327 20.0479C187.768 20.0479 185.688 22.1281 185.688 24.6876C185.688 27.2471 187.768 29.3272 190.327 29.3272Z" fill="white"/>
<path d="M46.0796 89.6936H47.2352V100.3H46.0796V89.6936Z" fill="white"/>
<path d="M50.6849 89.7963V91.1659H49.281V89.7963H50.6849ZM49.4008 92.9721H50.5565V100.3H49.4008V92.9721Z" fill="white"/>
<path d="M54.2545 92.9721H56.2319V93.9308H54.2545V100.291H53.0989V93.9308H51.7378V92.9721H53.0989V92.7324C53.0989 91.7566 53.33 91.0204 53.7922 90.5239C54.2545 90.0188 54.965 89.7449 55.9323 89.685L56.5058 89.6508L56.5914 90.6009L55.9323 90.6437C55.3502 90.6865 54.9222 90.8577 54.6568 91.1659C54.3914 91.4741 54.2545 91.9363 54.2545 92.5698V92.9721Z" fill="white"/>
<path d="M63.1657 96.8242H58.0724C58.1066 97.6802 58.3292 98.3222 58.7315 98.7588C59.1338 99.1954 59.6988 99.4094 60.435 99.4094C61.2482 99.4094 61.9929 99.1183 62.6692 98.5362L63.0544 99.4265C62.7462 99.7261 62.361 99.9658 61.8816 100.137C61.4023 100.308 60.9143 100.402 60.4264 100.402C59.3393 100.402 58.4832 100.068 57.8583 99.3922C57.2335 98.7245 56.9253 97.7915 56.9253 96.6102C56.9253 95.8569 57.0623 95.1977 57.3362 94.6157C57.6101 94.0421 58.0039 93.5884 58.5004 93.2717C58.9969 92.955 59.5704 92.7923 60.2124 92.7923C61.1369 92.7923 61.8645 93.1091 62.3867 93.7511C62.9089 94.3845 63.1742 95.2662 63.1742 96.379V96.8327L63.1657 96.8242ZM58.7572 94.3417C58.3891 94.7441 58.1751 95.309 58.1066 96.0452H62.1556C62.1384 95.3005 61.9587 94.7355 61.6248 94.3417C61.291 93.948 60.8202 93.7511 60.221 93.7511C59.6217 93.7511 59.1253 93.948 58.7572 94.3503V94.3417Z" fill="white"/>
<path d="M69.8426 89.7963V91.1659H68.4387V89.7963H69.8426ZM68.5586 92.9721H69.7142V100.3H68.5586V92.9721Z" fill="white"/>
<path d="M71.4519 99.4522L71.8371 98.5533C72.2052 98.8615 72.5904 99.0841 72.9756 99.221C73.3608 99.358 73.7974 99.4265 74.2853 99.4265C74.7989 99.4265 75.1927 99.3323 75.4666 99.1526C75.7406 98.9728 75.8775 98.6989 75.8775 98.3479C75.8775 98.0568 75.7834 97.8257 75.6036 97.6545C75.4238 97.4833 75.1242 97.3464 74.7048 97.2522L73.532 96.9697C72.9414 96.8327 72.4877 96.5845 72.171 96.2507C71.8542 95.9082 71.7002 95.4888 71.7002 94.9837C71.7002 94.3332 71.9399 93.8024 72.4278 93.4087C72.9157 93.0063 73.5663 92.8095 74.3709 92.8095C74.8589 92.8095 75.3211 92.8951 75.7577 93.0577C76.1943 93.2203 76.5623 93.46 76.862 93.7682L76.4767 94.6585C75.8347 94.0849 75.1414 93.8024 74.3709 93.8024C73.883 93.8024 73.5064 93.8966 73.2324 94.0935C72.9585 94.2904 72.8215 94.5643 72.8215 94.9153C72.8215 95.2063 72.9072 95.4374 73.0698 95.6172C73.241 95.797 73.5064 95.9254 73.8745 96.0195L75.0643 96.3191C75.7149 96.4818 76.1943 96.7215 76.511 97.0467C76.8277 97.372 76.9818 97.8 76.9818 98.3137C76.9818 98.9557 76.7335 99.4693 76.2456 99.8459C75.7577 100.231 75.0814 100.419 74.234 100.419C73.0612 100.419 72.1282 100.103 71.4434 99.4693L71.4519 99.4522Z" fill="white"/>
<path d="M87.5536 93.2631C88.0244 93.5713 88.3839 94.0164 88.6407 94.59C88.8975 95.1635 89.0259 95.8226 89.0259 96.5759C89.0259 97.3292 88.8975 98.0055 88.6407 98.5876C88.3839 99.1611 88.0244 99.6148 87.5536 99.9315C87.0827 100.257 86.5435 100.411 85.9357 100.411C85.3878 100.411 84.917 100.282 84.5147 100.034C84.1124 99.786 83.8042 99.4265 83.5902 98.9642V100.3H82.4346V89.6936H83.5902V94.239C83.7956 93.7768 84.1038 93.4258 84.5147 93.169C84.917 92.9207 85.3964 92.7923 85.9357 92.7923C86.5435 92.7923 87.0827 92.9464 87.5536 93.2546V93.2631ZM87.2796 98.6561C87.6477 98.1596 87.836 97.4662 87.836 96.5759C87.836 95.6857 87.6477 95.0265 87.2796 94.5472C86.9115 94.0678 86.3808 93.8281 85.7046 93.8281C85.0283 93.8281 84.5061 94.0678 84.138 94.5472C83.77 95.0265 83.5902 95.7114 83.5902 96.6102C83.5902 97.509 83.77 98.1938 84.138 98.6817C84.5061 99.1697 85.0283 99.4094 85.7046 99.4094C86.3808 99.4094 86.903 99.1611 87.2796 98.6646V98.6561Z" fill="white"/>
<path d="M96.5846 96.8242H91.4913C91.5255 97.6802 91.7481 98.3222 92.1504 98.7588C92.5528 99.1954 93.1177 99.4094 93.8539 99.4094C94.6671 99.4094 95.4119 99.1183 96.0881 98.5362L96.4733 99.4265C96.1652 99.7261 95.78 99.9658 95.3006 100.137C94.8212 100.308 94.3333 100.402 93.8453 100.402C92.7582 100.402 91.9022 100.068 91.2773 99.3922C90.6524 98.7245 90.3442 97.7915 90.3442 96.6102C90.3442 95.8569 90.4812 95.1977 90.7551 94.6157C91.029 94.0421 91.4228 93.5884 91.9193 93.2717C92.4158 92.955 92.9893 92.7923 93.6313 92.7923C94.5558 92.7923 95.2835 93.1091 95.8056 93.7511C96.3278 94.3845 96.5932 95.2662 96.5932 96.379V96.8327L96.5846 96.8242ZM92.1761 94.3417C91.808 94.7441 91.594 95.309 91.5255 96.0452H95.5745C95.5574 95.3005 95.3776 94.7355 95.0438 94.3417C94.7099 93.948 94.2391 93.7511 93.6399 93.7511C93.0407 93.7511 92.5442 93.948 92.1761 94.3503V94.3417Z" fill="white"/>
<path d="M101.935 99.3837L101.875 100.342C101.652 100.385 101.421 100.402 101.156 100.402C100.317 100.402 99.6835 100.171 99.2641 99.709C98.836 99.2467 98.6306 98.6047 98.6306 97.7829V93.9308H97.2695V92.9721H98.6306V90.7465H99.7862V92.9721H101.764V93.9308H99.7862V97.6888C99.7862 98.8444 100.291 99.4179 101.301 99.4179C101.507 99.4179 101.721 99.4008 101.935 99.3751V99.3837Z" fill="white"/>
<path d="M106.84 99.3837L106.78 100.342C106.557 100.385 106.326 100.402 106.061 100.402C105.222 100.402 104.588 100.171 104.169 99.709C103.741 99.2467 103.535 98.6047 103.535 97.7829V93.9308H102.174V92.9721H103.535V90.7465H104.691V92.9721H106.668V93.9308H104.691V97.6888C104.691 98.8444 105.196 99.4179 106.206 99.4179C106.412 99.4179 106.626 99.4008 106.84 99.3751V99.3837Z" fill="white"/>
<path d="M113.85 96.8242H108.757C108.791 97.6802 109.014 98.3222 109.416 98.7588C109.819 99.1954 110.384 99.4094 111.12 99.4094C111.933 99.4094 112.678 99.1183 113.354 98.5362L113.739 99.4265C113.431 99.7261 113.046 99.9658 112.566 100.137C112.087 100.308 111.599 100.402 111.111 100.402C110.024 100.402 109.168 100.068 108.543 99.3922C107.918 98.7245 107.61 97.7915 107.61 96.6102C107.61 95.8569 107.747 95.1977 108.021 94.6157C108.295 94.0421 108.689 93.5884 109.185 93.2717C109.682 92.955 110.255 92.7923 110.897 92.7923C111.822 92.7923 112.549 93.1091 113.071 93.7511C113.594 94.3845 113.859 95.2662 113.859 96.379V96.8327L113.85 96.8242ZM109.442 94.3417C109.074 94.7441 108.86 95.309 108.791 96.0452H112.84C112.823 95.3005 112.643 94.7355 112.31 94.3417C111.976 93.948 111.505 93.7511 110.906 93.7511C110.307 93.7511 109.81 93.948 109.442 94.3503V94.3417Z" fill="white"/>
<path d="M119.5 93.8452L118.738 93.9223C118.019 93.9908 117.506 94.2304 117.189 94.6328C116.872 95.0351 116.71 95.5316 116.71 96.1222V100.3H115.554V92.9721H116.684V94.2476C117.078 93.3915 117.84 92.9207 118.987 92.818L119.397 92.7838L119.5 93.8367V93.8452Z" fill="white"/>
<path d="M134.9 92.9721L132.315 100.3H131.202L129.242 94.6328L127.264 100.3H126.16L123.575 92.9721H124.773L126.751 98.8529L128.771 92.9721H129.773L131.758 98.8529L133.744 92.9721H134.9Z" fill="white"/>
<path d="M137.614 89.7963V91.1659H136.21V89.7963H137.614ZM136.33 92.9721H137.485V100.3H136.33V92.9721Z" fill="white"/>
<path d="M143.34 99.3837L143.28 100.342C143.058 100.385 142.827 100.402 142.561 100.402C141.722 100.402 141.089 100.171 140.67 99.709C140.242 99.2467 140.036 98.6047 140.036 97.7829V93.9308H138.675V92.9721H140.036V90.7465H141.192V92.9721H143.169V93.9308H141.192V97.6888C141.192 98.8444 141.697 99.4179 142.707 99.4179C142.912 99.4179 143.126 99.4008 143.34 99.3751V99.3837Z" fill="white"/>
<path d="M150.514 95.6942V100.3H149.358V95.7713C149.358 95.0865 149.23 94.59 148.982 94.2818C148.725 93.9736 148.322 93.8196 147.775 93.8196C147.133 93.8196 146.628 94.025 146.242 94.4359C145.857 94.8468 145.669 95.4032 145.669 96.1051V100.3H144.513V89.6936H145.669V94.1448C145.9 93.6997 146.217 93.3659 146.619 93.1347C147.021 92.9036 147.492 92.7923 148.014 92.7923C149.684 92.7923 150.514 93.7596 150.514 95.6942Z" fill="white"/>
<path d="M166.393 95.6942V100.3H165.237V95.7542C165.237 95.0865 165.126 94.59 164.903 94.2818C164.681 93.9736 164.321 93.8196 163.825 93.8196C163.243 93.8196 162.789 94.025 162.455 94.4359C162.121 94.8468 161.959 95.4118 161.959 96.1222V100.3H160.803V95.7542C160.803 95.0693 160.692 94.5814 160.461 94.2732C160.23 93.9651 159.87 93.811 159.374 93.811C158.791 93.811 158.338 94.0164 158.004 94.4273C157.67 94.8382 157.507 95.4032 157.507 96.1137V100.291H156.352V92.9635H157.499V94.1192C157.704 93.6912 157.995 93.3573 158.372 93.1262C158.74 92.8951 159.177 92.7838 159.656 92.7838C160.735 92.7838 161.445 93.2631 161.788 94.2304C161.984 93.7768 162.293 93.4258 162.703 93.169C163.114 92.9122 163.577 92.7838 164.107 92.7838C165.648 92.7838 166.427 93.7511 166.427 95.6857L166.393 95.6942Z" fill="white"/>
<path d="M173.318 93.5114C173.755 93.9908 173.969 94.7098 173.969 95.6857V100.3H172.839V99.0498C172.659 99.4778 172.385 99.8117 172.008 100.051C171.64 100.291 171.204 100.402 170.724 100.402C170.279 100.402 169.868 100.308 169.492 100.12C169.115 99.9315 168.815 99.6662 168.601 99.3238C168.379 98.9813 168.276 98.6047 168.276 98.1938C168.276 97.646 168.413 97.2179 168.678 96.9098C168.944 96.6016 169.38 96.3876 169.997 96.2507C170.613 96.1137 171.452 96.0452 172.539 96.0452H172.856V95.5487C172.856 94.9409 172.736 94.4958 172.496 94.2219C172.257 93.948 171.871 93.811 171.341 93.811C170.536 93.811 169.74 94.0678 168.952 94.59L168.567 93.6997C168.927 93.4258 169.363 93.2118 169.877 93.0491C170.39 92.8865 170.878 92.8009 171.358 92.8009C172.248 92.8009 172.907 93.0406 173.335 93.5114H173.318ZM172.291 98.8358C172.659 98.4335 172.839 97.9028 172.839 97.2608V96.8242H172.582C171.743 96.8242 171.101 96.8584 170.664 96.9355C170.228 97.0125 169.911 97.1323 169.731 97.3121C169.543 97.4833 169.449 97.7487 169.449 98.0825C169.449 98.4763 169.586 98.793 169.86 99.0498C170.134 99.3066 170.476 99.435 170.878 99.435C171.452 99.435 171.923 99.2296 172.291 98.8273V98.8358Z" fill="white"/>
<path d="M180.791 100.3L177.247 96.7985V100.3H176.092V89.6936H177.247V96.2934L180.491 92.9807H181.964L178.506 96.4818L182.298 100.291H180.8L180.791 100.3Z" fill="white"/>
<path d="M187.99 93.5114C188.427 93.9908 188.641 94.7098 188.641 95.6857V100.3H187.511V99.0498C187.331 99.4778 187.057 99.8117 186.68 100.051C186.312 100.291 185.876 100.402 185.396 100.402C184.951 100.402 184.54 100.308 184.164 100.12C183.787 99.9315 183.488 99.6662 183.274 99.3238C183.051 98.9813 182.948 98.6047 182.948 98.1938C182.948 97.646 183.085 97.2179 183.351 96.9098C183.616 96.6016 184.053 96.3876 184.669 96.2507C185.285 96.1137 186.124 96.0452 187.211 96.0452H187.528V95.5487C187.528 94.9409 187.408 94.4958 187.168 94.2219C186.929 93.948 186.544 93.811 186.013 93.811C185.208 93.811 184.412 94.0678 183.624 94.59L183.239 93.6997C183.599 93.4258 184.035 93.2118 184.549 93.0491C185.063 92.8865 185.551 92.8009 186.03 92.8009C186.92 92.8009 187.579 93.0406 188.007 93.5114H187.99ZM186.963 98.8358C187.331 98.4335 187.511 97.9028 187.511 97.2608V96.8242H187.254C186.415 96.8242 185.773 96.8584 185.337 96.9355C184.9 97.0125 184.583 97.1323 184.403 97.3121C184.215 97.4833 184.121 97.7487 184.121 98.0825C184.121 98.4763 184.258 98.793 184.532 99.0498C184.806 99.3066 185.148 99.435 185.551 99.435C186.124 99.435 186.595 99.2296 186.963 98.8273V98.8358Z" fill="white"/>
<path d="M192.048 89.7963V91.1659H190.644V89.7963H192.048ZM190.764 92.9721H191.919V100.3H190.764V92.9721Z" fill="white"/>
<path d="M195.369 89.7963V91.1659H193.965V89.7963H195.369ZM194.085 92.9721H195.241V100.3H194.085V92.9721Z" fill="white"/>
</g>
<defs>
<clipPath id="clip0_15_37">
<rect width="250" height="119.937" fill="white"/>
</clipPath>
</defs>
</svg>
